# xmcd CD database file
#
# Track frame offsets:
#	150
#	13738
#	33946
#	46940
#	66887
#	97235
#	123199
#	134097
#	141533
#	165751
#
# Disc length: 2708 seconds
#
# Revision: 0
# Processed by: cddbd v1.5.2PL0 Copyright (c) Steve Scherf et al.
# Submitted via: CDex 1.51
#
DISCID=8b0a920a
DTITLE=Jason Moran's  - Suggested Listening part 2
DYEAR=2007
DGENRE=Jazz
TTITLE0=Erroll Garner - Penthouse Serenade (When We're Alone)
TTITLE1=Erroll Garner - If I Had You
TTITLE2=Herbie Nichols - Infatuation Eyes
TTITLE3=Herbie Nichols - The Gig
TTITLE4=Max Roach Trio Feat. Hasaan - Almost Like Me
TTITLE5=Max Roach Trio Feat. Hasaan - Three-Four vs Six-Eight vs Four-Four Ways
TTITLE6=Oscar Dennard - What is this thing called love
TTITLE7=Oscar Dennard - Yesterdays
TTITLE8=Stanley Cowell - Departure No. 1 (1958)
TTITLE9=Cecil Taylor - Love For Sale
EXTD=YEAR: 2007
EXTT0=
EXTT1=
EXTT2=
EXTT3=
EXTT4=
EXTT5=
EXTT6=
EXTT7=
EXTT8=
EXTT9=
PLAYORDER=
